<svg width="1444" height="1185" viewBox="0 0 1444 1185" fill="none" xmlns="http://www.w3.org/2000/svg">
<path d="M403.378 997H355.478V930.6H372.578V982.1H403.378V997ZM423.261 997H406.161V930.6H423.261V997ZM463.643 997H447.343L425.743 930.6H443.943L455.843 972.7L467.543 930.6H485.243L463.643 997ZM539.5 997H487.9V930.6H537.9V944.8H504.5V955.1H535V969.5H504.5V982.5H539.5V997ZM583.613 997H566.513V930.6H583.613V997ZM654.095 997H638.095V956.4L629.395 997H612.495L603.895 956.7V997H588.095V930.6H613.095L621.295 975.1L629.495 930.6H654.095V997ZM724.7 997H708.7V956.4L700 997H683.1L674.5 956.7V997H658.7V930.6H683.7L691.9 975.1L700.1 930.6H724.7V997ZM780.906 997H729.306V930.6H779.306V944.8H745.906V955.1H776.406V969.5H745.906V982.5H780.906V997ZM835.012 950.2H819.412C819.345 944.6 815.545 941.8 808.012 941.8C801.679 941.8 798.512 943.733 798.512 947.6C798.512 949.333 799.145 950.733 800.412 951.8C801.679 952.867 803.912 953.9 807.112 954.9C807.245 954.967 808.145 955.267 809.812 955.8C811.545 956.267 813.312 956.767 815.112 957.3C816.912 957.833 818.912 958.5 821.112 959.3C823.379 960.1 825.212 960.833 826.612 961.5C830.212 963.233 832.912 965.433 834.712 968.1C836.512 970.7 837.412 974.133 837.412 978.4C837.412 985.2 835.112 990.4 830.512 994C825.979 997.533 819.245 999.3 810.312 999.3C801.245 999.3 794.212 997.433 789.212 993.7C784.212 989.967 781.645 984.433 781.512 977.1H797.412C797.879 982.7 802.279 985.5 810.612 985.5C817.745 985.5 821.312 983.3 821.312 978.9C821.312 977.1 820.612 975.7 819.212 974.7C817.879 973.633 815.445 972.533 811.912 971.4C801.312 968.067 794.445 965.467 791.312 963.6C785.779 960.333 783.012 955.467 783.012 949C783.012 942.733 785.112 937.733 789.312 934C793.512 930.267 799.612 928.4 807.612 928.4C815.945 928.4 822.479 930.433 827.212 934.5C832.012 938.5 834.612 943.733 835.012 950.2ZM856.941 959.3H872.241C877.308 959.3 879.841 956.8 879.841 951.8C879.841 947.067 877.308 944.7 872.241 944.7H856.941V959.3ZM893.941 997H877.141V979C877.141 976 876.674 973.967 875.741 972.9C874.808 971.833 873.208 971.3 870.941 971.3H856.941V997H840.341V930.6H874.941C881.341 930.6 886.308 932.267 889.841 935.6C893.441 938.867 895.241 943.233 895.241 948.7C895.241 957.567 891.774 963.067 884.841 965.2C887.908 966.133 890.174 967.533 891.641 969.4C893.174 971.267 893.941 974.1 893.941 977.9V997ZM950.149 950.2H934.549C934.482 944.6 930.682 941.8 923.149 941.8C916.815 941.8 913.649 943.733 913.649 947.6C913.649 949.333 914.282 950.733 915.549 951.8C916.815 952.867 919.049 953.9 922.249 954.9C922.382 954.967 923.282 955.267 924.949 955.8C926.682 956.267 928.449 956.767 930.249 957.3C932.049 957.833 934.049 958.5 936.249 959.3C938.515 960.1 940.349 960.833 941.749 961.5C945.349 963.233 948.049 965.433 949.849 968.1C951.649 970.7 952.549 974.133 952.549 978.4C952.549 985.2 950.249 990.4 945.649 994C941.115 997.533 934.382 999.3 925.449 999.3C916.382 999.3 909.349 997.433 904.349 993.7C899.349 989.967 896.782 984.433 896.649 977.1H912.549C913.015 982.7 917.415 985.5 925.749 985.5C932.882 985.5 936.449 983.3 936.449 978.9C936.449 977.1 935.749 975.7 934.349 974.7C933.015 973.633 930.582 972.533 927.049 971.4C916.449 968.067 909.582 965.467 906.449 963.6C900.915 960.333 898.149 955.467 898.149 949C898.149 942.733 900.249 937.733 904.449 934C908.649 930.267 914.749 928.4 922.749 928.4C931.082 928.4 937.615 930.433 942.349 934.5C947.149 938.5 949.749 943.733 950.149 950.2ZM972.578 997H955.478V930.6H972.578V997ZM1012.96 997H996.66L975.06 930.6H993.26L1005.16 972.7L1016.86 930.6H1034.56L1012.96 997ZM1088.82 997H1037.22V930.6H1087.22V944.8H1053.82V955.1H1084.32V969.5H1053.82V982.5H1088.82V997ZM508.103 1068H456.503V1001.6H506.503V1015.8H473.103V1026.1H503.603V1040.5H473.103V1053.5H508.103V1068ZM569.209 1068H548.409L538.809 1047.7L528.409 1068H508.509L528.909 1034.1L509.709 1001.6H529.909L538.809 1020.5L547.909 1001.6H567.709L548.709 1033.3L569.209 1068ZM589.033 1030.3H600.233C602.899 1030.3 604.966 1029.63 606.433 1028.3C607.966 1026.97 608.733 1025.17 608.733 1022.9C608.733 1020.7 607.966 1018.97 606.433 1017.7C604.899 1016.37 602.833 1015.7 600.233 1015.7H589.033V1030.3ZM589.033 1068H571.933V1001.6H601.433C608.499 1001.6 613.966 1003.4 617.833 1007C621.766 1010.6 623.733 1015.83 623.733 1022.7C623.733 1029.57 621.766 1034.8 617.833 1038.4C613.966 1042 608.499 1043.8 601.433 1043.8H589.033V1068ZM677.634 1068H626.034V1001.6H676.034V1015.8H642.634V1026.1H673.134V1040.5H642.634V1053.5H677.634V1068ZM696.541 1030.3H711.841C716.907 1030.3 719.441 1027.8 719.441 1022.8C719.441 1018.07 716.907 1015.7 711.841 1015.7H696.541V1030.3ZM733.541 1068H716.741V1050C716.741 1047 716.274 1044.97 715.341 1043.9C714.407 1042.83 712.807 1042.3 710.541 1042.3H696.541V1068H679.941V1001.6H714.541C720.941 1001.6 725.907 1003.27 729.441 1006.6C733.041 1009.87 734.841 1014.23 734.841 1019.7C734.841 1028.57 731.374 1034.07 724.441 1036.2C727.507 1037.13 729.774 1038.53 731.241 1040.4C732.774 1042.27 733.541 1045.1 733.541 1048.9V1068ZM755.732 1068H738.632V1001.6H755.732V1068ZM811.814 1068H760.214V1001.6H810.214V1015.8H776.814V1026.1H807.314V1040.5H776.814V1053.5H811.814V1068ZM869.52 1068H853.82L829.92 1028.5V1068H814.12V1001.6H832.12L853.52 1038.7V1001.6H869.52V1068ZM916.784 1045.2H933.884C932.484 1052.87 929.184 1058.97 923.984 1063.5C918.85 1068.03 912.384 1070.3 904.584 1070.3C895.317 1070.3 887.75 1067.3 881.884 1061.3C876.084 1055.23 873.184 1046.67 873.184 1035.6C873.184 1024.4 875.984 1015.57 881.584 1009.1C887.25 1002.63 894.984 999.4 904.784 999.4C913.05 999.4 919.784 1001.67 924.984 1006.2C930.25 1010.73 933.217 1016.47 933.884 1023.4H916.784C916.117 1020.33 914.717 1018.03 912.584 1016.5C910.45 1014.9 907.884 1014.1 904.884 1014.1C895.284 1014.1 890.484 1020.93 890.484 1034.6C890.484 1048.47 895.017 1055.4 904.084 1055.4C910.884 1055.4 915.117 1052 916.784 1045.2ZM987.791 1068H936.191V1001.6H986.191V1015.8H952.791V1026.1H983.291V1040.5H952.791V1053.5H987.791V1068Z" fill="white"/>
<path d="M471.542 55.5L465.942 33.7L459.842 55.5H471.542ZM498.342 82H479.742L476.442 69.5H455.542L451.642 82H433.542L456.042 15.6H476.042L498.342 82ZM549.647 35.2H534.047C533.98 29.6 530.18 26.8 522.647 26.8C516.314 26.8 513.147 28.7333 513.147 32.6C513.147 34.3333 513.78 35.7333 515.047 36.8C516.314 37.8667 518.547 38.9 521.747 39.9C521.88 39.9667 522.78 40.2667 524.447 40.8C526.18 41.2667 527.947 41.7667 529.747 42.3C531.547 42.8333 533.547 43.5 535.747 44.3C538.014 45.1 539.847 45.8333 541.247 46.5C544.847 48.2333 547.547 50.4333 549.347 53.1C551.147 55.7 552.047 59.1333 552.047 63.4C552.047 70.2 549.747 75.4 545.147 79C540.614 82.5333 533.88 84.3 524.947 84.3C515.88 84.3 508.847 82.4333 503.847 78.7C498.847 74.9667 496.28 69.4333 496.147 62.1H512.047C512.514 67.7 516.914 70.5 525.247 70.5C532.38 70.5 535.947 68.3 535.947 63.9C535.947 62.1 535.247 60.7 533.847 59.7C532.514 58.6333 530.08 57.5333 526.547 56.4C515.947 53.0667 509.08 50.4667 505.947 48.6C500.414 45.3333 497.647 40.4667 497.647 34C497.647 27.7333 499.747 22.7333 503.947 19C508.147 15.2667 514.247 13.4 522.247 13.4C530.58 13.4 537.114 15.4333 541.847 19.5C546.647 23.5 549.247 28.7333 549.647 35.2ZM572.076 44.3H583.276C585.942 44.3 588.009 43.6333 589.476 42.3C591.009 40.9667 591.776 39.1667 591.776 36.9C591.776 34.7 591.009 32.9667 589.476 31.7C587.942 30.3667 585.876 29.7 583.276 29.7H572.076V44.3ZM572.076 82H554.976V15.6H584.476C591.542 15.6 597.009 17.4 600.876 21C604.809 24.6 606.776 29.8333 606.776 36.7C606.776 43.5667 604.809 48.8 600.876 52.4C597.009 56 591.542 57.8 584.476 57.8H572.076V82ZM660.677 82H609.077V15.6H659.077V29.8H625.677V40.1H656.177V54.5H625.677V67.5H660.677V82ZM697.184 82H680.084V29.8H661.084V15.6H716.384V29.8H697.184V82ZM754.215 82H737.115V29.8H718.115V15.6H773.415V29.8H754.215V82ZM795.077 55.5L789.477 33.7L783.377 55.5H795.077ZM821.877 82H803.277L799.977 69.5H779.077L775.177 82H757.077L779.577 15.6H799.577L821.877 82ZM879.907 82H864.207L840.307 42.5V82H824.507V15.6H842.507L863.907 52.7V15.6H879.907V82ZM900.97 68.1H909.37C914.97 68.1 918.937 66.5333 921.27 63.4C923.604 60.2 924.77 55.1 924.77 48.1C924.77 41.1 923.604 36.3 921.27 33.7C918.937 31.0333 914.604 29.7 908.27 29.7H900.97V68.1ZM912.87 82H884.37V15.6H910.67C920.07 15.6 927.67 18.5333 933.47 24.4C939.337 30.2667 942.27 38.1667 942.27 48.1C942.27 58.2333 939.57 66.4333 934.17 72.7C928.77 78.9 921.67 82 912.87 82ZM977.791 69.6C982.258 69.6 985.991 67.9333 988.991 64.6C991.991 61.2667 993.491 56.3 993.491 49.7C993.491 42.7 992.125 37.4333 989.391 33.9C986.725 30.3 982.858 28.5 977.791 28.5C972.658 28.5 968.725 30.3 965.991 33.9C963.325 37.4333 961.991 42.7 961.991 49.7C961.991 62.9667 967.258 69.6 977.791 69.6ZM977.791 84.3C967.325 84.3 959.258 81.3 953.591 75.3C947.991 69.2333 945.191 60.6 945.191 49.4C945.191 38.0667 948.025 29.2333 953.691 22.9C959.358 16.5667 967.391 13.4 977.791 13.4C988.191 13.4 996.191 16.6 1001.79 23C1007.46 29.3333 1010.29 38.2333 1010.29 49.7C1010.29 61.0333 1007.49 69.6333 1001.89 75.5C996.358 81.3667 988.325 84.3 977.791 84.3Z" fill="white"/>
<path d="M396.487 1130.2H380.887C380.82 1124.6 377.02 1121.8 369.487 1121.8C363.153 1121.8 359.987 1123.73 359.987 1127.6C359.987 1129.33 360.62 1130.73 361.887 1131.8C363.153 1132.87 365.387 1133.9 368.587 1134.9C368.72 1134.97 369.62 1135.27 371.287 1135.8C373.02 1136.27 374.787 1136.77 376.587 1137.3C378.387 1137.83 380.387 1138.5 382.587 1139.3C384.853 1140.1 386.687 1140.83 388.087 1141.5C391.687 1143.23 394.387 1145.43 396.187 1148.1C397.987 1150.7 398.887 1154.13 398.887 1158.4C398.887 1165.2 396.587 1170.4 391.987 1174C387.453 1177.53 380.72 1179.3 371.787 1179.3C362.72 1179.3 355.687 1177.43 350.687 1173.7C345.687 1169.97 343.12 1164.43 342.987 1157.1H358.887C359.353 1162.7 363.753 1165.5 372.087 1165.5C379.22 1165.5 382.787 1163.3 382.787 1158.9C382.787 1157.1 382.087 1155.7 380.687 1154.7C379.353 1153.63 376.92 1152.53 373.387 1151.4C362.787 1148.07 355.92 1145.47 352.787 1143.6C347.253 1140.33 344.487 1135.47 344.487 1129C344.487 1122.73 346.587 1117.73 350.787 1114C354.987 1110.27 361.087 1108.4 369.087 1108.4C377.42 1108.4 383.953 1110.43 388.687 1114.5C393.487 1118.5 396.087 1123.73 396.487 1130.2ZM453.416 1177H401.816V1110.6H451.816V1124.8H418.416V1135.1H448.916V1149.5H418.416V1162.5H453.416V1177ZM498.522 1154.2H515.622C514.222 1161.87 510.922 1167.97 505.722 1172.5C500.589 1177.03 494.122 1179.3 486.322 1179.3C477.055 1179.3 469.489 1176.3 463.622 1170.3C457.822 1164.23 454.922 1155.67 454.922 1144.6C454.922 1133.4 457.722 1124.57 463.322 1118.1C468.989 1111.63 476.722 1108.4 486.522 1108.4C494.789 1108.4 501.522 1110.67 506.722 1115.2C511.989 1119.73 514.955 1125.47 515.622 1132.4H498.522C497.855 1129.33 496.455 1127.03 494.322 1125.5C492.189 1123.9 489.622 1123.1 486.622 1123.1C477.022 1123.1 472.222 1129.93 472.222 1143.6C472.222 1157.47 476.755 1164.4 485.822 1164.4C492.622 1164.4 496.855 1161 498.522 1154.2ZM549.729 1164.6C554.196 1164.6 557.929 1162.93 560.929 1159.6C563.929 1156.27 565.429 1151.3 565.429 1144.7C565.429 1137.7 564.062 1132.43 561.329 1128.9C558.662 1125.3 554.796 1123.5 549.729 1123.5C544.596 1123.5 540.662 1125.3 537.929 1128.9C535.262 1132.43 533.929 1137.7 533.929 1144.7C533.929 1157.97 539.196 1164.6 549.729 1164.6ZM549.729 1179.3C539.262 1179.3 531.196 1176.3 525.529 1170.3C519.929 1164.23 517.129 1155.6 517.129 1144.4C517.129 1133.07 519.962 1124.23 525.629 1117.9C531.296 1111.57 539.329 1108.4 549.729 1108.4C560.129 1108.4 568.129 1111.6 573.729 1118C579.396 1124.33 582.229 1133.23 582.229 1144.7C582.229 1156.03 579.429 1164.63 573.829 1170.5C568.296 1176.37 560.262 1179.3 549.729 1179.3ZM641.395 1177H625.695L601.795 1137.5V1177H585.995V1110.6H603.995L625.395 1147.7V1110.6H641.395V1177ZM662.459 1163.1H670.859C676.459 1163.1 680.425 1161.53 682.759 1158.4C685.092 1155.2 686.259 1150.1 686.259 1143.1C686.259 1136.1 685.092 1131.3 682.759 1128.7C680.425 1126.03 676.092 1124.7 669.759 1124.7H662.459V1163.1ZM674.359 1177H645.859V1110.6H672.159C681.559 1110.6 689.159 1113.53 694.959 1119.4C700.825 1125.27 703.759 1133.17 703.759 1143.1C703.759 1153.23 701.059 1161.43 695.659 1167.7C690.259 1173.9 683.159 1177 674.359 1177ZM783.787 1177H732.187V1110.6H782.187V1124.8H748.787V1135.1H779.287V1149.5H748.787V1162.5H783.787V1177ZM803.193 1139.3H814.393C817.06 1139.3 819.126 1138.63 820.593 1137.3C822.126 1135.97 822.893 1134.17 822.893 1131.9C822.893 1129.7 822.126 1127.97 820.593 1126.7C819.06 1125.37 816.993 1124.7 814.393 1124.7H803.193V1139.3ZM803.193 1177H786.093V1110.6H815.593C822.66 1110.6 828.126 1112.4 831.993 1116C835.926 1119.6 837.893 1124.83 837.893 1131.7C837.893 1138.57 835.926 1143.8 831.993 1147.4C828.126 1151 822.66 1152.8 815.593 1152.8H803.193V1177ZM857.295 1177H840.195V1110.6H857.295V1177ZM913.577 1130.2H897.977C897.91 1124.6 894.11 1121.8 886.577 1121.8C880.243 1121.8 877.077 1123.73 877.077 1127.6C877.077 1129.33 877.71 1130.73 878.977 1131.8C880.243 1132.87 882.477 1133.9 885.677 1134.9C885.81 1134.97 886.71 1135.27 888.377 1135.8C890.11 1136.27 891.877 1136.77 893.677 1137.3C895.477 1137.83 897.477 1138.5 899.677 1139.3C901.943 1140.1 903.777 1140.83 905.177 1141.5C908.777 1143.23 911.477 1145.43 913.277 1148.1C915.077 1150.7 915.977 1154.13 915.977 1158.4C915.977 1165.2 913.677 1170.4 909.077 1174C904.543 1177.53 897.81 1179.3 888.877 1179.3C879.81 1179.3 872.777 1177.43 867.777 1173.7C862.777 1169.97 860.21 1164.43 860.077 1157.1H875.977C876.443 1162.7 880.843 1165.5 889.177 1165.5C896.31 1165.5 899.877 1163.3 899.877 1158.9C899.877 1157.1 899.177 1155.7 897.777 1154.7C896.443 1153.63 894.01 1152.53 890.477 1151.4C879.877 1148.07 873.01 1145.47 869.877 1143.6C864.343 1140.33 861.577 1135.47 861.577 1129C861.577 1122.73 863.677 1117.73 867.877 1114C872.077 1110.27 878.177 1108.4 886.177 1108.4C894.51 1108.4 901.043 1110.43 905.777 1114.5C910.577 1118.5 913.177 1123.73 913.577 1130.2ZM950.12 1164.6C954.586 1164.6 958.32 1162.93 961.32 1159.6C964.32 1156.27 965.82 1151.3 965.82 1144.7C965.82 1137.7 964.453 1132.43 961.72 1128.9C959.053 1125.3 955.186 1123.5 950.12 1123.5C944.986 1123.5 941.053 1125.3 938.32 1128.9C935.653 1132.43 934.32 1137.7 934.32 1144.7C934.32 1157.97 939.586 1164.6 950.12 1164.6ZM950.12 1179.3C939.653 1179.3 931.586 1176.3 925.92 1170.3C920.32 1164.23 917.52 1155.6 917.52 1144.4C917.52 1133.07 920.353 1124.23 926.02 1117.9C931.686 1111.57 939.72 1108.4 950.12 1108.4C960.52 1108.4 968.52 1111.6 974.12 1118C979.786 1124.33 982.62 1133.23 982.62 1144.7C982.62 1156.03 979.82 1164.63 974.22 1170.5C968.686 1176.37 960.653 1179.3 950.12 1179.3ZM1002.99 1163.1H1011.39C1016.99 1163.1 1020.95 1161.53 1023.29 1158.4C1025.62 1155.2 1026.79 1150.1 1026.79 1143.1C1026.79 1136.1 1025.62 1131.3 1023.29 1128.7C1020.95 1126.03 1016.62 1124.7 1010.29 1124.7H1002.99V1163.1ZM1014.89 1177H986.386V1110.6H1012.69C1022.09 1110.6 1029.69 1113.53 1035.49 1119.4C1041.35 1125.27 1044.29 1133.17 1044.29 1143.1C1044.29 1153.23 1041.59 1161.43 1036.19 1167.7C1030.79 1173.9 1023.69 1177 1014.89 1177ZM1099.61 1177H1048.01V1110.6H1098.01V1124.8H1064.61V1135.1H1095.11V1149.5H1064.61V1162.5H1099.61V1177Z" fill="white"/>
<path d="M647.384 121.156C641.278 124.17 635.712 127.261 634.243 128.575C633.857 128.962 631.77 130.43 629.683 131.821C623.73 135.918 612.599 147.356 604.019 158.177C598.763 164.823 595.748 169.306 586.858 183.682C583.534 188.937 571.012 214.288 569.234 219.08C568.538 221.089 566.296 226.886 564.287 231.987C562.277 237.088 560.267 242.498 559.803 243.966C559.339 245.435 557.252 252.236 555.165 259.038C553.001 265.839 549.677 278.205 547.667 286.475C545.657 294.745 543.802 301.701 543.648 301.932C543.416 302.164 540.942 302.551 538.159 302.86C533.444 303.324 531.28 303.71 521.23 305.874C519.375 306.261 516.438 306.879 514.66 307.265C512.805 307.652 509.404 308.579 507.085 309.275C504.766 309.97 501.828 310.821 500.514 311.207C492.629 313.603 489.924 314.376 485.672 315.767C482.967 316.54 480.803 317.004 480.803 316.617C480.803 316.308 482.039 310.357 483.508 303.401C484.977 296.445 486.214 289.953 486.214 289.103C486.214 288.175 487.064 283.538 488.223 278.746C489.306 273.954 490.31 268.621 490.465 266.998C490.774 263.52 494.794 245.358 497.577 234.692C498.659 230.673 499.818 225.804 500.205 223.949C500.591 222.094 502.137 217.07 503.606 212.742C505.075 208.414 506.312 204.395 506.312 203.854C506.312 203.236 508.708 197.825 511.645 191.72C517.134 180.358 521.617 174.098 528.806 167.76C530.661 166.137 532.362 164.514 532.594 164.282C532.826 164.05 534.603 162.891 536.613 161.732C540.633 159.413 540.942 158.949 541.56 153.23C542.102 149.057 540.865 146.583 538.391 146.583C536.381 146.583 515.51 150.37 514.737 150.911C514.273 151.143 511.8 151.916 509.172 152.457C503.683 153.771 500.205 154.621 496.108 155.781C494.485 156.244 492.011 156.94 490.697 157.249C484.281 158.949 446.404 176.648 442.848 179.663C442.23 180.204 438.287 183.063 434.036 186.155C429.784 189.246 426.151 191.951 425.919 192.183C425.688 192.415 424.142 193.575 422.441 194.811C418.344 197.825 401.647 214.674 399.251 218.307C395.54 223.871 394.69 225.031 393.376 226.577C392.603 227.427 389.666 232.605 386.806 238.17C381.317 248.681 376.834 260.274 375.674 266.766C375.288 268.853 374.438 273.259 373.896 276.505C373.123 280.756 372.969 284.929 373.355 291.189C373.819 298.996 374.206 300.541 376.447 305.024C380.08 312.212 382.399 314.917 386.651 317.081C395.618 321.641 407.445 320.714 419.658 314.53C427.156 310.743 437.514 300.773 441.689 293.276C446.868 283.924 448.878 273.49 446.404 268.699C444.858 265.762 443.003 264.834 438.906 264.834C434.886 264.911 431.562 266.612 428.47 270.244C425.456 273.8 424.683 275.345 422.75 281.606C421.05 287.325 417.03 295.054 413.938 298.764C411.155 302.01 405.512 304.947 400.874 305.488C397.55 305.874 396.545 305.642 394.304 304.097C389.898 301.082 388.815 298.996 387.888 291.499C387.192 285.316 387.269 283.383 388.815 274.495C389.743 269.008 391.366 262.361 392.371 259.888C393.376 257.337 394.226 254.787 394.226 254.168C394.226 252.854 402.498 236.779 405.126 233.069C416.18 217.457 428.316 205.863 446.249 193.729C456.376 186.928 484.977 173.866 497.036 170.543C498.968 170.002 501.442 169.229 502.601 168.842C505.461 167.76 506.93 168.379 505.307 169.847C502.601 172.166 492.552 184.223 489.615 188.705C483.276 198.366 468.435 231.368 468.435 235.851C468.435 236.547 467.43 240.643 466.193 244.971C463.487 254.168 459.159 273.104 459.159 275.423C459.159 276.35 458.308 280.678 457.303 285.084C456.376 289.412 455.525 293.74 455.448 294.59C455.448 295.44 454.521 300.078 453.438 304.947C452.356 309.739 451.428 314.453 451.428 315.303C451.428 316.154 450.733 319.863 449.805 323.65L448.259 330.452L439.988 335.166C435.427 337.717 429.63 341.195 427.079 342.895C424.528 344.518 420.122 347.301 417.262 349.001C414.324 350.779 412.005 352.556 412.005 352.865C412.005 353.252 410.537 354.488 408.836 355.648C404.662 358.353 401.879 360.903 392.68 370.332C381.24 382.08 375.752 389.886 371.036 401.17C366.398 412.3 365.548 416.164 365.393 426.212C365.239 437.65 366.939 442.983 372.66 448.703C378.534 454.577 383.636 456.122 396.391 456.045C402.034 455.968 406.517 456.2 406.44 456.509C400.797 470.111 390.052 501.49 385.337 517.953C384.641 520.503 382.399 528 380.312 534.57C378.303 541.139 375.674 549.873 374.515 553.892C371.964 562.935 361.606 590.836 355.886 603.975C343.208 633.112 329.604 653.748 313.293 668.742C300.848 680.258 292.886 685.9 281.755 691.387C273.87 695.252 259.338 700.739 257.019 700.739C256.787 700.739 259.647 697.261 263.435 693.088C273.097 682.267 280.363 671.215 289.485 653.284C308.578 615.645 321.564 571.127 325.816 528.928C328.135 505.819 328.444 494.457 327.285 477.995C325.738 454.963 324.347 448.007 319.091 435.409C316.694 429.535 315.612 427.835 314.221 427.448C312.211 426.907 291.263 433.709 288.944 435.641C287.475 436.8 283.687 450.017 283.687 453.958C283.687 455.89 279.9 473.976 275.493 492.834C266.14 533.024 254.545 567.263 239.472 598.719C222.234 634.89 203.759 661.013 180.801 681.881C167.892 693.629 158.384 700.121 143.774 707.309C133.725 712.333 133.261 712.178 139.368 706.227C142.46 703.212 146.711 698.498 148.799 695.716C150.963 692.856 153.746 689.301 155.06 687.755C162.017 679.485 172.066 661.4 180.723 641.691C198.193 601.579 205.15 567.649 203.836 528C203.604 520.735 202.831 511.692 202.136 507.905C199.739 494.534 192.164 474.826 185.98 466.247C178.946 456.431 163.331 446.152 149.572 442.442C144.315 441.051 141.223 440.819 128.314 440.742C115.637 440.665 111.849 440.974 104.351 442.442C92.6787 444.684 90.2051 445.457 75.518 450.789C72.3487 451.949 58.1255 459.291 52.5599 462.537C27.6693 477.299 10.9724 496.93 3.01052 520.812C0.923421 527.073 0.61422 529.469 0.22772 539.362C-0.236081 549.873 -0.0814806 551.032 1.54182 555.592C5.09763 565.176 7.72583 569.504 13.446 574.914C21.7172 582.875 33.2349 587.28 45.6802 587.28C64.5414 587.28 82.0112 580.015 95.6161 566.567C103.501 558.838 106.825 553.196 108.371 544.849C109.144 540.753 109.066 539.825 107.752 537.198C106.67 534.879 105.51 533.951 103.114 533.101C96.2345 530.705 90.9008 535.111 84.2529 548.791C81.8566 553.969 78.3781 559.92 76.6002 562.162C67.4015 573.6 47.6127 576.615 31.3024 568.963C15.4558 561.543 10.5086 545.931 17.1564 524.29C21.0215 511.77 27.4374 501.259 37.5637 490.902C50.3182 477.84 65.5463 469.029 87.4995 461.996C91.9057 460.605 103.501 458.827 108.602 458.827C115.946 458.827 127.541 460.76 132.566 462.846C143.619 467.329 153.746 476.836 159.079 487.733C167.66 505.123 169.283 511.692 170.906 534.879C172.452 556.829 170.829 577.001 165.341 602.97C162.635 616.109 162.171 617.655 155.91 636.204C148.335 658.463 145.629 664.646 135.426 682.577C124.681 701.512 112.081 714.265 99.5584 719.211C96.621 720.293 95.075 723.076 94.5339 727.945C93.9928 733.123 95.075 734.205 100.718 734.128C112.931 734.05 133.261 728.486 151.504 720.216C158.384 717.124 173.457 708.236 177.013 705.222C177.709 704.681 179.796 703.212 181.651 701.976C183.584 700.739 185.825 699.116 186.676 698.343C199.044 687.446 203.295 683.427 209.866 676.394C214.117 671.756 218.291 667.042 219.142 665.882C219.992 664.8 222.62 661.4 225.016 658.54C231.973 649.961 245.037 629.48 252.844 614.949C263.357 595.396 281.368 552.578 285.852 536.425C286.702 533.488 289.33 524.909 291.726 517.412C294.123 509.838 296.055 503.113 296.055 502.418C296.055 501.722 297.137 497.626 298.452 493.375C299.766 489.047 301.312 483.482 301.853 480.932L302.78 476.217L303.476 481.627C303.785 484.564 304.094 493.607 304.094 501.722C304.249 544.231 291.495 600.651 271.706 645.556C265.908 658.617 262.352 665.032 254.622 676.78C243.878 693.01 235.452 701.512 225.867 705.763C221.229 707.85 220.997 708.004 219.837 712.101C217.286 720.911 219.837 722.457 233.674 720.525C238.853 719.752 243.955 718.979 245.037 718.825C246.119 718.593 248.516 718.129 250.448 717.743C256.4 716.583 259.956 715.733 263.203 714.651C285.697 707.386 300.693 700.198 313.448 690.537C315.303 689.146 315.071 689.61 312.211 693.01C306.723 699.58 299.379 711.173 295.514 719.288C293.582 723.307 291.185 728.331 290.18 730.495C289.176 732.582 287.475 737.992 286.315 742.475C285.233 746.958 283.919 751.981 283.455 753.682C282.914 755.459 282.528 761.642 282.528 767.98C282.528 779.032 282.528 779.264 285.079 784.52C287.784 790.394 288.48 791.012 294.045 793.949C297.215 795.572 298.915 795.958 304.481 795.958C311.902 796.036 316.926 794.799 324.27 791.012C326.821 789.621 329.062 788.384 329.294 788.075C329.526 787.843 330.918 786.838 332.386 785.988C342.049 780.037 353.18 763.265 353.876 753.527C354.262 747.576 353.798 745.644 351.402 743.016C349.006 740.465 344.522 740.234 340.271 742.398C335.324 744.948 333.932 746.958 326.743 762.57C321.41 774.24 314.066 780.81 305.872 781.196C301.93 781.428 299.534 780.037 297.91 776.559C296.055 772.695 295.823 769.062 296.751 760.56C297.601 752.754 302.085 737.219 306.336 727.636C309.505 720.448 320.869 703.985 328.367 695.638C346.996 674.925 374.051 659.467 402.575 653.207C407.445 652.125 411.542 651.275 411.774 651.275C411.928 651.275 411.387 652.202 410.537 653.362C403.348 662.868 393.84 678.326 387.347 691.387C381.163 703.676 378.689 709.705 375.056 721.298C367.094 746.339 365.703 751.054 363.229 761.797C361.915 767.516 360.601 772.695 360.214 773.39C359.905 774.008 358.823 778.337 357.895 783.051C356.968 787.688 355.808 792.403 355.422 793.485C354.958 794.567 353.644 799.591 352.407 804.692C348.851 820.072 341.353 848.514 340.58 849.828C340.271 850.292 339.189 853.383 338.184 856.629C334.319 869.459 326.125 886.695 324.27 885.922C323.729 885.767 320.946 884.994 318.086 884.299C311.515 882.598 297.06 882.985 290.644 884.994C288.325 885.69 285.156 886.695 283.687 887.158C279.745 888.318 269.773 893.264 269.773 894.037C269.773 894.346 269.078 894.81 268.305 895.119C267.454 895.351 264.362 897.979 261.425 900.838C249.057 913.05 243.105 932.836 248.748 942.96C251.453 947.907 256.71 950.998 263.203 951.462C270.778 952.08 287.861 948.525 297.601 944.351C302.007 942.497 306.413 940.487 307.264 939.946C318.163 933.145 323.883 928.894 330.454 922.479C335.246 917.764 338.493 915.214 338.957 915.6C339.421 915.987 341.508 916.837 343.595 917.455C345.759 918.151 348.542 919.078 349.933 919.542C351.325 919.928 356.195 920.547 360.755 920.933C367.635 921.397 371.423 921.165 382.245 919.697C396.314 917.842 397.628 917.533 408.913 913.9C416.721 911.427 431.33 904.703 436.2 901.379C437.824 900.297 440.143 898.829 441.457 898.21C442.694 897.515 444.394 896.51 445.09 895.892C445.786 895.274 449.341 892.646 452.974 890.018C471.295 876.724 490.62 853.151 502.369 829.965C509.558 815.667 517.907 795.108 520.612 784.906C527.724 758.01 529.579 734.437 526.41 712.874C523.318 692.238 515.51 675.775 502.292 662.095C497.499 657.149 490.542 651.739 485.672 649.188C484.358 648.492 483.044 647.179 482.812 646.251C482.58 645.324 481.344 644.087 480.107 643.623C475.469 641.691 472.454 636.822 471.217 629.248L470.676 626.156L475.933 624.069C480.493 622.215 491.393 619.046 498.968 617.345C503.065 616.418 504.688 609.771 501.132 608.457C499.277 607.684 480.339 610.235 475.392 611.858C473.073 612.631 471.063 613.172 470.985 613.095C470.831 613.017 470.754 572.673 470.754 523.518C470.676 443.679 470.831 433.863 471.913 431.235C473.691 426.907 476.628 423.043 479.102 421.574L481.344 420.261L481.807 436.568C482.117 445.534 482.349 457.668 482.349 463.465C482.349 474.981 482.658 475.831 486.523 475.831C491.006 475.831 492.088 473.976 493.093 464.16C494.485 450.171 500.746 435.718 507.394 430.849C515.356 425.052 521.54 423.429 537.541 423.12L546.662 422.888L548.904 427.062L551.146 431.235L550.991 529.855L550.759 628.475L548.981 632.339C546.894 636.822 544.73 639.372 541.483 640.996C538.7 642.464 538.005 643.391 538.005 645.556C538.005 647.101 537.464 647.333 531.821 647.797C528.033 648.106 525.173 648.802 524.477 649.497C522.158 651.739 523.781 657.458 526.719 657.458C528.883 657.458 532.362 661.863 533.83 666.346C535.145 670.597 535.222 673.457 535.067 698.034C534.835 737.606 533.444 810.643 532.594 829.888C532.13 839.858 531.357 847.973 530.738 850.215C529.347 854.697 526.332 858.794 523.086 860.417C520.071 861.962 519.453 862.813 519.453 865.518C519.453 869.382 521.308 870.232 528.265 869.691C531.743 869.382 542.565 868.686 552.305 868.068C562.122 867.527 570.703 866.831 571.476 866.522C572.171 866.213 573.022 865.131 573.253 864.126C574.104 860.88 573.022 858.716 569.93 857.325C566.606 855.857 564.055 852.379 562.741 847.587C561.813 844.031 562.509 775.786 563.514 774.163C563.9 773.622 569.62 773.236 581.447 773.158L598.763 773.004L605.488 776.327C610.821 778.955 612.908 780.501 615.614 783.824C619.634 788.848 623.344 795.031 625.045 799.745C626.281 803.301 628.755 816.749 629.605 824.787C631.074 838.003 636.021 851.683 641.51 857.789C646.921 863.817 652.1 865.749 662.381 865.44C671.657 865.286 679.077 860.185 683.406 851.065C685.802 846.196 686.266 842.331 684.72 840.785C683.174 839.24 678.845 839.626 677.299 841.558C672.198 847.819 672.043 847.973 669.879 846.968C666.941 845.655 665.163 841.172 661.221 824.864C659.289 817.212 656.892 808.092 655.81 804.692C651.945 792.712 642.592 778.878 633.779 772.308C631.229 770.376 629.451 768.676 629.76 768.521C630.146 768.366 632.156 767.594 634.398 766.898C640.427 764.888 646.766 760.406 653.027 753.682C665.55 740.311 670.961 721.452 668.796 699.348C667.792 689.533 666.4 684.2 662.458 675.234C659.057 667.351 654.96 662.095 648.312 657.149C636.253 648.106 628.137 645.865 607.884 645.865H595.516L594.588 643.16C593.893 641.382 592.578 639.991 590.337 638.754C587.863 637.363 586.549 635.895 584.771 632.339L582.452 627.702L582.22 536.811L582.066 445.92L584.385 445.457C588.714 444.529 588.482 438.655 583.998 437.187L581.293 436.259V428.762V421.188L595.593 420.724C617.237 419.951 624.117 422.038 631.151 431.622C635.557 437.573 637.567 444.297 641.123 465.165C641.741 468.72 643.365 470.421 646.07 470.421C650.631 470.421 650.476 471.348 650.863 440.665L651.249 412.377L654.805 414.696C659.984 417.942 662.226 422.888 663.231 433.322C663.772 438.655 664.004 472.662 663.849 532.638C663.617 619.587 663.54 623.992 662.149 627.702C660.216 632.88 656.738 637.518 653.723 638.909C651.713 639.836 651.172 640.609 651.017 642.85C650.631 647.797 651.636 648.183 665.241 648.183H677.145V650.038C677.145 652.048 678.923 654.366 680.469 654.366C682.169 654.444 686.344 658.695 687.735 661.709C689.049 664.568 689.126 670.056 689.513 740.543C690.054 826.719 689.513 820.227 696.934 835.221C702.963 847.432 712.162 855.084 727.622 860.726C738.908 864.899 748.57 866.445 762.562 866.445C778.563 866.368 787.529 864.513 798.429 859.025C808.091 854.156 814.043 848.978 818.449 841.558C823.319 833.52 825.561 828.11 827.107 820.381C828.498 813.735 828.576 810.102 827.957 744.484C827.571 706.613 827.648 673.225 827.957 670.288C828.73 663.796 831.359 658.463 834.914 656.144C836.383 655.139 838.006 654.057 838.547 653.594C839.862 652.434 839.707 648.57 838.316 647.101C837.697 646.483 837.156 645.092 837.156 644.01C837.156 641.846 836.383 640.996 832.518 638.986C829.271 637.363 826.18 632.107 824.788 626.002C824.092 622.756 823.86 599.028 823.783 526.918C823.706 438.81 823.783 431.776 825.02 426.83C826.643 420.415 829.117 416.937 833.291 415.082C836.615 413.614 837.697 411.604 836.847 408.281C836.615 407.276 835.765 406.194 835.069 405.885C834.296 405.576 822.624 405.035 809.096 404.648C782.505 403.798 780.572 404.03 780.109 407.74C779.645 410.677 780.65 413.073 782.505 413.614C784.747 414.387 787.529 416.937 789.075 419.797C792.399 426.289 792.554 428.067 792.863 470.962C793.095 493.607 792.94 512.156 792.554 512.156C792.245 512.156 789.307 511.692 786.138 511.074C776.089 509.142 758.928 508.215 746.328 508.987C729.245 510.069 717.264 512.929 703.736 519.421L695.156 523.518L694.692 494.534C693.61 435.332 693.919 426.753 697.32 420.106C698.866 417.092 702.499 413.614 704.973 412.841C707.833 411.913 707.988 405.499 705.205 404.339C702.654 403.334 654.573 403.953 652.409 404.958C650.863 405.73 650.09 405.73 648.544 404.88C646.457 403.798 647.152 403.798 592.965 405.962C576.655 406.581 563.127 406.89 562.818 406.658C562.586 406.349 562.431 397.924 562.431 387.877C562.509 372.265 562.818 367.473 564.596 355.648C565.755 347.996 566.838 339.804 567.069 337.485C567.301 335.166 568.306 329.292 569.388 324.501C570.393 319.631 571.244 315.612 571.244 315.381C571.244 314.762 577.273 315.071 587.245 316.308C598.763 317.777 599.304 317.622 600.618 312.83C601.7 308.966 601.545 305.41 600.386 304.328C598.917 303.169 592.192 301.932 584.771 301.546C581.37 301.314 577.505 301.005 576.191 300.773L573.795 300.387L577.118 287.789C578.974 280.91 580.52 274.65 580.52 273.8C580.52 273.027 582.066 267.307 583.998 261.047C585.853 254.864 588.018 247.831 588.714 245.512C589.409 243.193 591.728 236.547 593.815 230.827C595.98 225.108 598.299 218.461 599.072 216.065C600.54 211.66 614.145 181.44 615.227 180.358C616.387 179.199 616.851 194.038 617.624 249.377C618.783 334.471 618.783 371.26 617.624 375.356C616 381.307 613.14 386.022 610.435 387.413C607.42 388.959 606.802 389.809 606.802 392.514C606.802 396.92 606.956 396.92 632.543 396.456C647.462 396.224 656.583 395.683 657.82 395.142C661.298 393.596 660.835 387.645 657.124 386.331C654.419 385.326 651.404 381.462 649.858 376.902C648.003 371.337 647.848 363.067 646.921 268.93C646.148 187.623 646.225 179.508 647.384 175.025C648.776 169.461 651.017 165.828 654.109 164.05C655.269 163.355 656.738 162.195 657.433 161.577C658.979 160.031 658.902 156.322 657.279 154.621C656.119 153.462 654.651 153.385 643.21 153.926C630.765 154.467 630.456 154.389 631.538 152.998C641.819 140.709 649.858 132.826 655.965 129.039C658.438 127.493 660.757 125.793 661.066 125.406C661.994 124.092 661.762 119.919 660.757 118.914C658.979 117.137 653.8 117.987 647.384 121.156ZM541.638 316.849C540.865 318.936 538.778 334.548 537.85 345.6C536.072 367.396 536.845 386.795 540.014 401.943C540.633 404.88 541.019 407.353 540.942 407.508C540.787 407.585 527.878 408.59 512.264 409.672C495.258 410.831 483.353 411.991 482.735 412.454C481.962 413.073 481.266 413.073 480.184 412.532C479.102 411.991 475.082 411.913 467.198 412.454C460.859 412.841 455.603 413.073 455.525 412.918C455.371 412.764 455.757 411.45 456.376 409.981C457.844 406.581 467.198 396.456 472.531 392.591C474.773 390.968 477.169 389.113 478.02 388.341C480.261 386.254 493.093 380.303 499.355 378.37C506.543 376.206 510.331 375.433 518.68 374.506C527.956 373.501 528.651 373.269 529.192 371.105C529.965 367.859 528.961 365.541 526.255 364.613C519.375 362.217 486.677 368.478 474.773 374.506C472.068 375.897 469.671 376.825 469.439 376.593C469.208 376.438 469.594 373.888 470.29 370.951C473.923 354.952 476.938 339.804 476.938 337.253C476.938 333.698 478.793 331.688 483.276 330.452C485.131 329.988 490.233 328.442 494.717 326.974C503.529 324.114 508.631 322.568 514.042 321.254C515.974 320.791 518.602 320.095 519.839 319.709C521.153 319.4 524.632 318.627 527.569 318.163C530.584 317.622 533.676 316.926 534.526 316.617C537.154 315.535 542.102 315.69 541.638 316.849ZM444.317 353.484C443.544 357.271 441.457 366.159 439.756 373.424C438.056 380.612 436.741 387.027 436.741 387.568C436.741 389.964 427.852 412.532 424.992 417.478C419.04 427.526 415.793 431.004 408.14 435.564C399.096 440.974 388.506 441.206 383.095 436.182C380.08 433.245 378.303 426.753 379.153 421.497C380.467 413.459 384.95 401.866 389.588 394.755C396.777 383.471 414.17 366.236 426.692 357.812C431.33 354.798 444.781 346.76 445.322 346.76C445.631 346.76 445.167 349.774 444.317 353.484ZM439.833 533.488C439.833 580.711 439.679 621.21 439.37 623.528C438.906 627.625 438.829 627.779 433.108 632.107C427.697 636.126 426.924 636.513 422.132 636.977C417.339 637.363 413.165 637.981 402.729 639.759C386.728 642.464 357.277 654.676 345.991 663.177C337.797 669.36 337.179 669.592 341.817 664.568C351.557 653.98 360.214 640.841 370.495 621.132C380.39 602.042 389.666 579.861 397.164 556.983C404.817 533.874 411.232 513.316 411.232 512.002C411.232 511.229 413.938 502.882 417.262 493.375C420.586 483.946 423.523 475.135 423.832 473.899C424.296 471.348 432.258 451.562 436.2 443.061L438.674 437.728L439.215 442.674C439.524 445.379 439.756 486.265 439.833 533.488ZM779.954 524.754C783.587 525.372 787.993 526.3 789.848 526.764L793.095 527.691V571.127C793.095 615.8 792.631 625.538 790.08 631.335C788.766 634.503 784.592 638.909 783.046 638.909C781.655 638.909 779.954 641.459 779.954 643.546C779.954 647.642 781.345 648.183 791.858 648.183H801.289L801.443 650.27C801.675 652.743 802.062 653.284 805.54 654.985C807.396 655.912 808.787 657.612 810.488 660.859C812.652 665.264 812.729 665.96 813.27 679.408C813.58 687.137 813.889 720.68 814.043 754.068L814.275 814.739L812.497 820.149C808.71 831.511 804.535 837.23 795.801 842.949C789.153 847.278 781.964 849.132 769.828 849.674C758.696 850.137 751.198 848.901 743.236 845.268C732.956 840.631 725.148 831.588 721.592 820.227C718.346 810.179 717.959 800.132 718.269 730.882L718.5 667.119L720.278 662.791C722.056 658.308 725.071 654.907 727.931 653.98C729.786 653.439 730.791 651.043 730.327 648.106C729.941 645.092 727.081 644.319 716.8 644.319C707.447 644.319 707.292 644.319 707.292 642.541C707.292 640.145 706.442 639.141 703.35 637.827C700.335 636.59 698.866 635.044 696.779 631.18C695.388 628.629 695.31 625.77 695.078 585.039L694.847 541.603L697.939 539.362C706.674 533.024 721.129 527.459 736.125 524.522C742.773 523.286 746.328 523.054 758.696 523.363C766.813 523.518 776.321 524.136 779.954 524.754ZM449.573 655.603C463.487 661.4 472.841 668.897 481.576 681.263C488.223 690.692 494.253 707.541 495.335 719.675C496.185 729.645 495.953 752.445 494.948 757.546C494.407 760.097 493.093 766.821 492.011 772.463C488.996 788.152 482.58 806.856 474 825.328C467.816 838.776 449.805 863.74 440.22 872.319C438.519 873.787 436.432 875.72 435.582 876.57C434.732 877.497 432.49 879.352 430.557 880.821C428.625 882.289 426.383 884.144 425.61 884.84C424.76 885.613 423.832 886.231 423.523 886.231C423.214 886.231 422.441 886.695 421.9 887.236C420.122 889.013 409.455 895.119 405.048 896.819C391.521 902.152 384.487 903.621 372.969 903.621C362.533 903.621 351.866 901.766 350.088 899.679C349.315 898.674 351.402 893.496 353.721 890.868C354.958 889.4 361.915 874.097 365.393 864.977C369.49 854.465 374.051 838.158 380.39 811.339C381.626 806.16 382.863 801.446 383.172 800.982C383.482 800.518 384.796 795.185 386.187 789.234C392.448 761.874 403.193 723.307 408.604 708.855C412.469 698.498 424.837 672.838 429.011 666.655C437.514 653.98 437.128 654.366 442.152 654.366C444.549 654.366 447.95 654.907 449.573 655.603ZM607.961 661.709C614.532 663.255 618.088 665.264 624.194 670.829C629.992 676.084 633.316 681.649 635.557 689.533C637.026 694.865 637.335 697.57 637.258 708.468C637.258 720.216 637.103 721.684 635.171 727.558C632.775 734.591 628.755 741.161 623.189 746.803C615.614 754.455 606.879 757.391 587.94 758.628C581.138 759.092 572.944 759.478 569.543 759.478H563.514V741.857C563.514 732.196 563.746 710.014 564.055 692.469L564.519 660.627L574.645 660.318C590.955 659.854 602.164 660.318 607.961 661.709ZM311.129 900.452C312.752 901.07 314.298 901.92 314.453 902.461C314.916 903.775 304.79 915.214 298.993 919.928C291.263 926.111 278.199 932.217 270.933 932.99C262.275 933.918 259.956 931.367 262.43 923.406C263.898 918.537 266.063 915.368 271.397 910.19C276.112 905.63 276.266 905.476 281.987 903.002C291.263 898.829 303.476 897.824 311.129 900.452Z" fill="white"/>
<path d="M776.553 120.769C775.239 122.005 774.93 124.633 775.78 126.875C776.089 127.57 777.712 128.807 779.49 129.734C786.834 133.444 802.448 148.902 808.632 158.563C813.889 166.832 814.043 167.219 811.724 169.306C810.333 170.62 810.101 170.542 806.855 168.997C805.077 168.069 802.99 166.832 802.371 166.291C800.361 164.591 783.046 155.78 778.485 154.157C776.089 153.307 772.224 152.148 769.905 151.529C767.586 150.911 764.417 150.061 762.871 149.597C761.093 149.056 755.605 148.824 747.797 149.056C737.516 149.443 734.424 149.829 728.859 151.452C716.027 155.317 709.07 159.49 697.939 169.769C688.508 178.58 681.706 187.623 676.063 198.984C667.482 216.065 663.386 228.663 660.912 245.203C655.037 284.929 658.361 319.167 670.652 345.986C683.02 372.805 700.026 388.727 723.912 395.914C734.192 398.929 738.444 399.47 748.261 399.083C760.243 398.542 769.828 395.992 780.495 390.504C792.786 384.244 804.149 373.733 809.096 364.304C810.41 361.753 810.874 362.062 812.652 366.468C813.348 368.168 815.976 374.738 818.527 381.075C821.155 387.413 823.242 393.055 823.242 393.596C823.242 396.687 829.735 398.31 831.822 395.683C832.673 394.678 832.982 384.553 833.368 340.267C833.678 302.164 834.141 285.083 834.76 282.61C836.074 277.664 838.857 273.799 842.722 271.635C844.886 270.476 846.123 269.239 846.278 268.003C846.664 265.375 845.814 262.747 844.422 262.206C842.799 261.588 813.193 259.656 795.414 258.96C782.428 258.496 780.959 258.573 779.722 259.733C778.099 261.433 778.022 265.066 779.568 266.689C780.263 267.307 782.041 268.08 783.664 268.389C789.539 269.394 795.723 272.099 798.583 274.959C803.917 280.291 804.304 282.687 804.304 311.207C804.226 332.384 803.994 337.176 802.912 341.658C797.192 364.536 775.161 381.539 751.43 381.539C745.787 381.539 743.7 381.152 737.748 378.911C729.245 375.742 725.767 373.656 719.583 367.782C710.693 359.512 706.442 352.942 700.799 338.799C696.702 328.674 693.455 316.694 691.368 303.864C689.59 293.199 689.358 258.651 690.904 244.352C692.528 230.054 697.088 213.205 701.958 203.544C705.823 196.047 712.162 186.077 715.64 182.445C720.047 177.576 729.941 170.31 734.734 168.224C743.932 164.282 757.151 162.968 766.736 164.978C780.186 167.837 794.641 177.962 802.217 189.787C809.328 200.917 815.512 217.765 815.512 226.112C815.512 229.9 817.599 232.373 820.769 232.373C825.175 232.373 825.097 232.605 825.948 210.268L826.721 189.71L833.91 205.94C837.852 214.906 842.103 225.34 843.263 229.049C844.5 232.759 846.973 240.024 848.751 245.125C850.606 250.226 853.157 258.573 854.549 263.674C855.94 268.776 858.723 279.132 860.81 286.706C863.902 298.3 864.289 300.618 863.361 301.237C862.743 301.623 859.882 301.932 856.945 301.932C852.307 301.932 845.505 302.705 839.707 303.864C837.543 304.328 836.615 307.574 837.156 312.289C837.775 316.849 839.475 318.472 843.34 317.853C849.292 316.926 866.53 315.535 866.917 315.999C867.69 316.771 871.864 340.035 874.028 356.034C875.884 369.405 876.193 374.506 876.193 388.881C876.193 406.967 875.574 411.99 872.173 422.734C870.55 427.912 869.545 429.689 866.608 432.626C863.67 435.641 862.279 436.414 858.414 437.186C852.694 438.346 851.843 439.041 851.843 442.21C851.843 445.224 853.08 446.384 856.713 447.002L859.419 447.388L856.868 451.021C853.08 456.277 845.273 472.971 842.258 482.091C840.867 486.496 838.857 494.148 837.852 499.017C836.151 507.132 835.997 509.76 835.997 528.773C836.074 547.477 836.229 550.491 837.775 557.756C841.794 576.073 851.379 598.409 860.424 610.312C867.303 619.277 878.666 630.175 886.86 635.585C894.126 640.377 906.108 646.56 908.35 646.715C909.896 646.792 904.33 648.801 902.397 648.879C901.47 648.956 896.755 650.888 891.962 653.284C878.976 659.776 867.767 669.901 858.259 683.736C854.626 689.068 846.819 705.917 844.113 714.342C842.799 718.438 841.408 724.312 841.021 727.326C840.635 730.34 839.862 735.596 839.321 738.997C838.857 742.397 838.393 751.981 838.393 760.251C838.393 775.167 839.321 784.365 841.408 791.166C842.026 793.098 843.727 798.818 845.273 803.919C849.988 819.299 859.496 836.611 868.308 845.422C879.749 857.093 888.793 863.199 902.088 868.3C913.529 872.705 919.481 873.942 932.003 874.405C945.067 874.946 956.276 873.091 963.774 869.304C965.552 868.377 967.484 867.681 968.103 867.681C968.721 867.681 970.731 866.522 972.586 865.131C974.441 863.817 977.379 861.653 979.234 860.416C983.253 857.711 987.118 853.306 990.751 847.432C992.297 844.959 993.766 842.949 994.075 842.949C994.385 842.949 995.235 844.572 996.008 846.582C996.704 848.668 998.868 853.383 1000.72 857.247C1002.5 861.034 1005.13 866.908 1006.52 870.232C1009.38 877.342 1010.39 878.502 1013.63 878.502C1016.34 878.502 1018.27 880.202 1022.14 885.999C1024.69 889.631 1036.13 901.533 1041.15 905.552C1042.93 907.021 1045.56 909.185 1046.87 910.344C1048.19 911.581 1049.58 912.508 1049.89 912.508C1050.12 912.508 1050.89 913.049 1051.59 913.668C1052.9 915.059 1062.25 920.624 1070.37 924.952C1076.71 928.352 1093.95 935.618 1099.2 937.163C1101.14 937.782 1104.07 938.709 1105.77 939.25C1107.47 939.791 1114.59 941.414 1121.62 942.728C1133.14 944.892 1135.3 945.047 1144.04 944.66C1149.37 944.428 1154.55 944.119 1155.63 944.042C1157.49 943.81 1157.57 943.965 1157.95 949.22C1158.34 953.78 1158.03 955.635 1156.17 961.2C1153.78 968.388 1154.01 970.552 1157.49 972.098C1160.66 973.566 1162.9 972.407 1165.06 968.388C1168.46 961.895 1169.62 956.022 1169.24 946.979L1168.93 938.864L1173.72 935.849C1176.43 934.149 1179.6 931.444 1180.76 929.821C1181.99 928.121 1183.38 926.42 1183.85 926.034C1187.79 922.324 1191.11 911.967 1191.65 901.379C1192.35 889.09 1190.11 877.11 1184.47 862.271C1181.14 853.692 1173.41 839.085 1170.55 836.148C1170.01 835.529 1169.16 834.37 1168.62 833.443C1166.84 830.042 1159.57 821.618 1154.78 817.289C1145.58 809.02 1144.58 808.169 1143.11 807.706C1142.34 807.474 1141.72 807.01 1141.72 806.701C1141.72 805.773 1126.26 798.277 1122.39 797.349C1112.5 794.876 1106.08 794.799 1100.44 797.194C1096.81 798.74 1094.57 803.223 1094.57 808.865C1094.57 816.594 1101.21 824.632 1108.79 826.023C1110.57 826.332 1115.44 826.255 1119.69 825.791C1126.57 825.018 1127.96 825.095 1132.06 826.332C1155.63 833.597 1177.28 866.135 1177.28 894.191C1177.28 898.906 1175.81 906.634 1174.49 908.876C1172.17 912.74 1167.61 918.073 1165.84 919.001L1163.75 920.083L1160.73 913.436C1155.63 902.229 1147.44 888.781 1133.99 869.691C1129.12 862.812 1118.45 848.9 1117.29 847.973C1116.75 847.509 1114.12 844.418 1111.42 840.94C1105.08 832.979 1090.39 815.821 1083.28 808.247C1080.27 805.001 1076.63 800.827 1075.24 798.972L1072.61 795.571L1074.39 794.335C1075.4 793.717 1077.79 791.784 1079.72 790.007C1081.58 788.306 1083.74 786.529 1084.52 786.142C1086.53 784.906 1103.07 770.066 1103.07 769.448C1103.07 769.139 1104.77 766.898 1106.78 764.579C1112.27 758.319 1118.99 744.407 1120.46 736.291C1121.85 728.408 1121.93 719.133 1120.77 714.11C1115.75 693.319 1110.72 683.194 1097.66 667.969C1094.87 664.723 1090.39 660.24 1087.61 657.999C1084.83 655.835 1082.27 653.593 1081.81 653.129C1080.65 651.738 1075.78 648.879 1066.35 644.009C1054.83 638.058 1045.4 635.43 1030.25 633.885L1025 633.344L1029.32 629.402C1038.75 620.823 1048.19 607.993 1052.36 598.023C1053.44 595.472 1055.22 591.299 1056.22 588.826C1062.64 573.832 1065.73 549.641 1064.26 525.295C1063.26 507.209 1060.32 494.225 1054.45 481.627C1052.82 478.149 1051.28 474.517 1051.05 473.435C1050.74 472.352 1048.65 468.411 1046.25 464.701C1043.93 460.914 1042 457.745 1042 457.59C1042 457.436 1044.17 457.281 1046.79 457.281C1057.69 457.281 1067.82 451.021 1071.45 442.056L1073.23 437.65L1074.39 440.355C1075.4 442.597 1075.55 453.958 1075.63 522.203C1075.7 608.302 1075.47 604.438 1079.96 618.041C1083.36 628.397 1091.94 642 1098.66 647.951C1105.77 654.211 1120.92 661.786 1130.9 664.182C1144.11 667.273 1164.52 668.278 1175.34 666.346C1199.38 662.095 1215.31 647.642 1220.56 625.306C1221.42 621.519 1222.34 617.577 1222.65 616.495C1222.88 615.413 1223.19 586.739 1223.35 552.732C1223.58 496.003 1224.35 460.991 1225.43 459.832C1225.9 459.445 1230 460.141 1239.81 462.305C1254.5 465.551 1267.02 475.753 1275.06 490.902C1277.61 495.539 1281.32 504.195 1283.41 510.224C1288.2 524.058 1288.51 525.063 1289.28 528.773C1289.67 530.473 1291.37 536.888 1293.07 543.071C1294.85 549.254 1297.94 561.234 1300.11 569.736C1303.89 584.884 1305.67 592.149 1311.39 616.881C1312.94 623.683 1315.1 632.571 1316.18 636.59C1317.27 640.609 1319.43 648.956 1320.98 655.139C1325.15 671.292 1331.1 687.445 1337.75 700.816C1340.92 707.308 1344.24 713.414 1345.02 714.573C1345.79 715.656 1348.19 719.365 1350.43 722.689C1355.53 730.495 1363.18 739.615 1368.29 744.02C1370.53 745.952 1372.85 748.039 1373.54 748.658C1376.02 750.899 1380.27 753.836 1385.14 756.695C1400.6 765.661 1418.84 767.593 1430.59 761.487C1434.92 759.323 1439.79 752.908 1441.57 747.344C1443.34 741.856 1443.81 731.422 1442.49 727.326C1442.11 726.089 1441.57 723.771 1441.26 722.148C1440.41 716.892 1435.77 714.419 1432.68 717.51C1431.59 718.592 1431.44 719.829 1431.83 724.93C1432.52 733.277 1431.44 736.91 1426.96 741.315C1422.55 745.643 1418.53 746.648 1409.95 745.489C1403.69 744.561 1401.76 743.788 1395.03 739.228C1389.54 735.519 1384.67 730.649 1379.96 723.925C1377.95 721.143 1376.09 718.747 1375.86 718.515C1374.86 717.82 1365.89 698.575 1363.42 692.005C1362.18 688.527 1360.25 682.885 1359.16 679.485C1358.16 676.084 1356.77 671.756 1356.15 669.824C1354.29 664.182 1349.19 644.164 1343.01 618.041C1323.22 534.028 1317.19 515.634 1301.88 492.911C1297.32 486.187 1286.58 474.826 1281.4 471.348C1279.85 470.266 1278.62 469.338 1278.77 469.184C1279.39 468.565 1304.36 473.744 1314.48 476.603C1316.18 477.067 1318.81 477.763 1320.28 478.149C1324.53 479.154 1330.41 480.931 1334.2 482.323C1336.13 483.018 1339.76 484.332 1342.31 485.182C1354.6 489.433 1373.16 498.476 1380.96 504.118C1403.15 520.039 1414.51 535.265 1421.24 558.374C1424.87 570.895 1423.94 586.893 1419.23 591.376C1416.06 594.39 1410.65 595.086 1404.77 593.231C1397.43 590.835 1390.32 582.72 1386.37 572.131C1382.12 560.925 1375.71 554.664 1368.36 554.664C1363.57 554.664 1361.48 555.978 1360.01 559.765C1358.31 564.325 1358.93 568.035 1362.64 575.764C1367.28 585.58 1376.09 595.627 1383.2 599.26C1384.52 599.955 1385.91 600.883 1386.45 601.424C1388.69 603.665 1399.75 607.143 1406.94 607.916C1421.39 609.539 1429.58 605.752 1435 595.009C1441.95 581.251 1438.55 557.369 1426.18 532.251C1419.69 519.189 1406.47 503.5 1394.95 495.307C1380.81 485.182 1377.79 483.25 1367.9 478.226C1358.62 473.512 1338.45 465.01 1336.51 465.01C1336.13 465.01 1334.66 464.546 1333.27 463.928C1330.18 462.614 1320.98 459.677 1317.19 458.75C1315.72 458.441 1313.09 457.745 1311.39 457.281C1309.69 456.818 1306.91 456.045 1305.21 455.658C1303.51 455.195 1300.88 454.576 1299.41 454.19C1288.05 451.253 1263.16 446.306 1250.87 444.529C1246.46 443.833 1240.89 442.674 1238.5 441.901C1236.02 441.051 1228.91 439.66 1222.5 438.809C1216.16 437.882 1209.51 436.877 1207.81 436.491C1206.11 436.104 1201.94 435.177 1198.53 434.481C1187.17 432.008 1175.89 428.839 1168.85 426.057C1150.45 418.715 1141.02 407.74 1140.95 393.75C1140.95 390.813 1141.33 389.731 1143.11 388.031C1145.97 385.326 1150.92 383.085 1155.71 382.544C1157.87 382.312 1160.12 381.616 1160.73 380.998C1162.36 379.298 1162.05 376.283 1159.88 374.197C1158.26 372.573 1157.33 372.264 1153 372.264C1142.72 372.264 1132.21 376.051 1127.03 381.616C1123.24 385.635 1120.85 392.437 1120.85 398.851C1120.85 404.803 1121.78 408.203 1125.56 416.087C1128.11 421.42 1129.74 423.429 1134.99 428.298C1143.81 436.491 1157.57 443.369 1175.34 448.47C1181.37 450.248 1189.57 452.335 1194.67 453.34C1197.22 453.881 1200.7 454.654 1202.4 454.963C1204.1 455.349 1206.42 455.813 1207.5 456.045C1210.13 456.586 1210.28 457.436 1210.13 469.647C1210.05 474.98 1209.74 508.137 1209.51 543.38C1208.82 621.209 1208.82 620.978 1200.7 633.266C1197.14 638.754 1195.21 640.454 1189.26 643.855C1180.45 648.801 1177.59 649.342 1162.98 649.188C1150.53 649.11 1149.45 648.956 1142.65 646.715C1123.86 640.454 1113.89 629.325 1108.4 608.38L1106.55 601.424L1106.62 525.604C1106.78 441.36 1106.55 444.451 1111.88 438.268C1113.5 436.414 1115.51 434.868 1116.91 434.636C1120.38 433.94 1121.62 427.912 1118.61 425.98C1118.14 425.748 1108.94 424.666 1098.2 423.584C1071.53 421.033 1074.16 421.729 1073 416.86C1069.52 401.557 1061.79 387.567 1049.19 373.81C1043.24 367.318 1031.95 357.348 1025.07 352.556C1016.57 346.605 1008.61 341.581 1000.26 336.944L990.597 331.533L988.896 323.495C987.969 319.09 985.959 309.197 984.413 301.546C982.867 293.894 980.78 283.615 979.698 278.746C978.693 273.877 977.842 269.162 977.842 268.312C977.842 266.457 972.431 246.207 969.339 236.624C964.933 222.789 963.001 217.843 957.358 206.481C951.097 193.729 943.908 183.14 935.946 174.793C933.008 171.856 930.689 169.306 930.689 169.228C930.689 169.074 931.462 169.306 932.467 169.692C933.395 170.079 935.714 170.851 937.646 171.315C949.705 174.716 969.262 182.677 979.543 188.473C982.403 190.096 985.109 191.41 985.572 191.41C985.959 191.41 986.345 191.719 986.345 192.106C986.345 192.492 987.118 193.11 988.123 193.42C989.051 193.729 989.978 194.192 990.21 194.424C990.442 194.656 992.143 195.893 993.998 197.129C995.931 198.366 997.863 199.68 998.25 199.989C1014.17 212.432 1018.19 216.142 1026.85 226.576C1035.43 236.933 1043.47 251.231 1045.87 260.583C1046.25 261.82 1047.41 265.993 1048.57 269.703C1050.2 275.19 1050.58 278.359 1050.74 285.933C1050.89 294.899 1050.81 295.594 1048.73 299.845C1045.94 305.333 1043.78 306.879 1038.6 306.879C1029.63 306.801 1022.21 299.536 1017.34 286.088C1012.47 272.563 1008.07 266.998 1001.57 266.07C991.215 264.525 987.891 275.19 994.462 289.411C1003.27 308.424 1021.67 321.022 1040.46 320.713C1047.72 320.636 1051.28 319.477 1055.92 315.767C1065.73 307.883 1068.36 286.552 1062.1 265.761C1055.61 244.275 1049.34 232.605 1035.82 216.683C1025.69 204.781 1021.52 200.994 1002.19 186.154C999.564 184.068 983.021 174.639 975.678 171.006C955.271 160.804 924.969 151.529 902.397 148.515C896.832 147.82 895.518 149.211 896.213 154.93C896.832 160.495 897.605 161.577 901.934 164.127C906.417 166.755 908.118 168.146 913.529 173.634C922.882 183.14 928.37 194.27 936.796 221.166C938.574 226.731 939.965 231.755 939.965 232.373C939.965 232.991 941.357 239.251 943.057 246.285C944.758 253.318 947.154 264.061 948.391 270.244C953.57 295.44 955.657 306.415 956.353 310.82C956.662 313.371 957.203 316.076 957.435 316.771C957.899 318.24 957.667 318.163 948.855 315.071C935.791 310.357 910.9 304.714 898.919 303.71L893.817 303.246L893.353 298.918C893.044 296.522 891.421 289.334 889.643 282.997C887.865 276.582 885.623 268.466 884.696 264.834C883.691 261.201 881.681 254.941 880.212 250.922C878.744 246.903 876.811 241.338 875.806 238.556C873.255 231.445 867.381 216.992 865.757 213.824C864.907 212.355 862.588 207.486 860.501 203.003C858.336 198.521 854.703 191.719 852.307 187.932C849.988 184.068 846.587 178.503 844.809 175.566C842.954 172.552 840.094 168.301 838.393 165.982C836.615 163.664 834.141 160.34 832.827 158.64C831.513 156.862 829.117 154.08 827.494 152.38C825.87 150.679 823.01 147.665 821.155 145.578C815.821 139.704 808.323 133.367 802.448 129.811C794.1 124.865 790.622 123.087 785.829 121.387C779.49 119.223 778.176 119.146 776.553 120.769ZM908.272 318.626C925.897 321.95 936.023 324.423 946.922 328.21C949.705 329.215 953.879 330.606 956.198 331.456C960.914 333.079 961.609 333.775 961.609 337.33C961.609 338.799 962.923 346.064 964.624 353.561C966.247 361.135 968.025 369.25 968.566 371.723C969.03 374.197 970.653 379.761 972.122 384.012C973.591 388.34 974.75 392.437 974.75 393.055C974.75 393.75 976.837 398.542 979.388 403.721C981.862 408.976 983.872 413.227 983.794 413.227C983.717 413.15 980.857 412.454 977.456 411.604C964.469 408.281 958.672 407.585 941.125 407.585C924.815 407.508 923.81 407.585 916.002 409.672C911.519 410.908 906.185 412.609 904.021 413.614C901.934 414.541 899.151 415.546 897.914 415.855C896.059 416.319 895.75 416.164 896.213 415.159C897.296 412.222 899.769 401.557 900.697 395.451C902.784 381.693 901.47 344.054 898.223 324.5C897.528 320.172 897.141 316.617 897.373 316.617C897.605 316.617 902.552 317.544 908.272 318.626ZM1005.13 354.411C1020.9 364.304 1033.03 374.351 1041.85 384.94C1050.2 394.91 1055.84 405.035 1057.85 413.691C1060.94 426.753 1060.71 432.626 1057 436.491C1054.14 439.505 1048.11 440.974 1042.16 440.201C1037.52 439.505 1029.63 436.182 1025.85 433.167C1022.68 430.694 1012.7 416.937 1011.08 412.841C1010.31 410.677 1008.45 406.039 1006.98 402.407C1005.44 398.774 1002.66 389.19 1000.72 381.152C996.704 364.304 993.302 349.001 993.302 348.073C993.302 347.378 997.554 349.619 1005.13 354.411ZM966.093 424.434C972.818 426.289 987.659 432.549 988.664 434.018C988.896 434.327 990.597 435.641 992.529 436.955C1000.8 442.674 1008.53 451.485 1015.64 463.31C1022.06 473.898 1023.06 476.449 1026.54 490.129C1031.8 510.842 1033.5 528.696 1032.03 549.254C1031.26 559.92 1030.17 566.567 1026.15 584.111C1022.29 601.501 1006.98 622.678 992.375 631.102C985.418 635.044 976.606 638.135 967.793 639.759C960.218 641.15 958.054 641.227 947.85 640.531C937.956 639.913 935.327 639.372 928.602 637.053C917.858 633.421 914.92 632.03 908.659 627.702C892.58 616.495 879.13 596.477 874.26 576.382C869.854 558.451 868.076 544.771 868.076 529.159C868.076 513.934 870.782 491.752 873.951 480.468C876.193 472.662 882.222 459.832 887.169 452.335C897.528 436.8 913.065 426.366 931.076 422.888C939.733 421.188 956.739 421.961 966.093 424.434ZM1040.07 652.82C1050.66 655.525 1062.49 662.404 1069.91 670.21C1083.13 683.967 1089 697.338 1089.23 713.723C1089.31 721.684 1088.54 725.007 1084.21 734.05C1081.04 740.62 1068.59 753.99 1054.99 765.197L1049.81 769.448L1045.33 764.192C1035.43 752.522 1031.18 747.344 1028.55 743.634C1018.5 729.336 1012.7 720.061 1008.76 711.946L1004.28 702.671L1003.82 681.958L1003.35 661.245L1006.29 658.153C1010.77 653.361 1016.72 651.275 1026.15 651.275C1031.33 651.275 1035.89 651.816 1040.07 652.82ZM985.186 654.134C984.877 654.907 984.026 657.148 983.331 659.081L982.017 662.636L974.75 658.926C970.731 656.839 968.18 655.139 969.03 655.139C969.803 655.062 973.436 654.598 977.069 654.057C986.036 652.588 985.804 652.588 985.186 654.134ZM947.154 661.708C960.45 665.186 968.721 669.824 976.451 678.248C980.316 682.422 981.089 683.813 983.64 691.619C986.191 699.348 995.08 719.829 996.394 720.834C996.626 721.066 999.564 725.239 1002.89 730.108C1006.13 734.978 1010.23 740.929 1011.85 743.247C1013.48 745.566 1014.56 747.653 1014.1 747.73C1013.71 747.885 1005.83 747.498 996.549 746.803C965.242 744.561 960.527 744.484 959.058 745.952C957.435 747.576 957.358 751.285 958.904 752.831C959.522 753.449 961.764 754.222 963.774 754.454C972.972 755.768 982.171 762.028 983.949 768.366C984.954 771.767 986.268 795.494 986.345 809.87C986.345 820.072 984.567 829.424 981.63 834.293C978.77 838.853 972.431 845.886 968.489 848.746C959.445 855.238 950.555 857.943 939.038 857.866C926.129 857.711 916.002 854.156 905.953 846.272C891.575 834.911 883.768 822.777 876.27 800.286C870.782 783.746 870.086 778.336 870.009 752.135C870.009 726.553 870.318 724.157 876.502 705.685C879.517 696.488 880.985 693.551 885.469 686.75C891.112 678.325 898.764 670.674 905.18 667.041C909.818 664.413 921.645 660.704 926.438 660.317C936.332 659.622 939.888 659.853 947.154 661.708ZM1025.54 760.792C1026.23 762.028 1028.78 765.197 1031.18 767.98C1036.44 774.085 1038.91 777.331 1038.91 777.95C1038.91 778.259 1036.28 780.578 1033.03 783.051C1029.79 785.601 1024.61 790.47 1021.44 793.794L1015.8 799.9L1015.33 797.194C1015.02 795.726 1014.95 788.615 1015.1 781.428C1015.33 769.834 1015.56 767.902 1017.11 764.424C1019.74 758.705 1023.22 757.159 1025.54 760.792ZM1076.4 819.376C1081.5 825.25 1087.92 832.67 1090.55 835.916C1093.25 839.162 1097.19 843.799 1099.28 846.195C1101.45 848.668 1105.46 853.692 1108.25 857.402C1111.03 861.189 1113.74 864.512 1114.28 864.976C1114.74 865.363 1116.44 867.681 1117.99 870C1119.53 872.319 1121.7 875.255 1122.86 876.569C1123.94 877.806 1125.56 880.047 1126.49 881.593C1127.34 883.062 1129.43 886.076 1131.05 888.24C1137.39 896.742 1147.21 913.745 1150.38 921.783C1152 925.802 1151.54 926.343 1146.36 926.498C1133.52 926.884 1121.23 925.725 1116.29 923.638C1114.9 923.02 1113.12 922.556 1112.42 922.556C1107.86 922.556 1074.16 906.789 1069.98 902.693C1069.37 902.152 1068.36 901.379 1067.59 900.915C1065.04 899.601 1060.94 895.969 1052.75 887.699C1045.48 880.434 1044.09 878.579 1040.22 870.927C1036.59 863.894 1035.59 861.112 1034.5 854.774C1033.11 846.504 1033.42 843.335 1036.51 835.143C1039.14 828.264 1049.89 814.971 1059.01 807.319L1063.26 803.764L1065.19 806.237C1066.27 807.628 1071.3 813.58 1076.4 819.376Z" fill="white"/>
</svg>
